# xmcd
#
# Track frame offsets:
# 150
# 17023
# 39115
# 55579
# 74039
# 91175
# 106959
# 121981
# 140255
# 155257
# 177116
# 201213
#
# Disc length: 2897 seconds
#
#
# Revision: 0
# Processed by: cddbd v1.5.2PL0 Copyright (c) Steve Scherf et al.
# Submitted via: Nero 7, 2, 0, 3 
#
DISCID=940b4f0c
DTITLE=Emmylou Harris - Luxury Liner
DYEAR=1977
DGENRE=Country
TTITLE0=Luxury Liner
TTITLE1=Luxury Liner
TTITLE2=Luxury Liner
TTITLE3=Luxury Liner
TTITLE4=Luxury Liner
TTITLE5=Luxury Liner
TTITLE6=Luxury Liner
TTITLE7=Luxury Liner
TTITLE8=Luxury Liner
TTITLE9=Luxury Liner
TTITLE10=Luxury Liner
TTITLE11=Luxury Liner
EXTD=
EXTT0=
EXTT1=
EXTT2=
EXTT3=
EXTT4=
EXTT5=
EXTT6=
EXTT7=
EXTT8=
EXTT9=
EXTT10=
EXTT11=
PLAYORDER=
